@startuml
hide empty methods
hide empty attributes
hide circle
skinparam classAttributeIconSize 0
class ebg_reg_GB_id_RAL_RA000587 as "ebg-reg:GB/id/RAL/RA000587"
ebg_reg_GB_id_RAL_RA000587 : a adms:Identifier
class ebg_reg_RAL as "ebg-reg:RAL"
ebg_reg_GB_id_RAL_RA000587 --> ebg_reg_RAL : dct:creator
ebg_reg_GB_id_RAL_RA000587 : rdfs:label "GB COH - Scotland"
ebg_reg_GB_id_RAL_RA000587 : skos:notation "RA000586"
class ebg_comp_GB_07444723_id as "ebg-comp:GB/07444723/id"
ebg_comp_GB_07444723_id : a adms:Identifier
class ebg_reg_GB as "ebg-reg:GB"
ebg_comp_GB_07444723_id --> ebg_reg_GB : dct:creator
ebg_comp_GB_07444723_id :  "official registration of OCORP in COH"
ebg_comp_GB_07444723_id : skos:notation "07444723"
class ebg_reg_BG_id_RAL as "ebg-reg:BG/id/RAL"
ebg_reg_BG_id_RAL : a adms:Identifier
ebg_reg_BG_id_RAL --> ebg_reg_RAL : dct:creator
ebg_reg_BG_id_RAL : skos:notation "RA000065"
class ebg_comp_GB_07444723 as "ebg-comp:GB/07444723"
ebg_comp_GB_07444723 : a ebg:Register, rov:RegisteredOrganization
class ebg_comp_GB_07444723_id_OCORP as "ebg-comp:GB/07444723/id/OCORP"
ebg_comp_GB_07444723 --> ebg_comp_GB_07444723_id_OCORP : adms:identifier
ebg_comp_GB_07444723 --> ebg_comp_GB_07444723_id : rov:registration
ebg_comp_GB_07444723 : dc:identifier "OCORP"
ebg_comp_GB_07444723 : rov:legalName "Chrinon Ltd"@en
ebg_comp_GB_07444723 : schema:url <http://opencorporates.com>
ebg_comp_GB_07444723 : skos:altLabel "OpenCorporates"@en
ebg_comp_GB_07444723 : skos:prefLabel "OpenCorporates"@en
ebg_reg_RAL : a ebg:Register
ebg_reg_RAL : dc:identifier "RAL"
ebg_reg_RAL : schema:url <https://www.gleif.org/en/about-lei/gleif-registration-authorities-list>
ebg_reg_RAL : skos:altLabel "GLEI RAL"
ebg_reg_RAL : skos:prefLabel "Registration Authorities List"@en
class ebg_reg_GB_id_RAL_RA000586 as "ebg-reg:GB/id/RAL/RA000586"
ebg_reg_GB_id_RAL_RA000586 : a adms:Identifier
ebg_reg_GB_id_RAL_RA000586 --> ebg_reg_RAL : dct:creator
ebg_reg_GB_id_RAL_RA000586 : rdfs:label "GB COH - Northern Ireland"
ebg_reg_GB_id_RAL_RA000586 : skos:notation "RA000586"
class ebg_comp_BG_200356710 as "ebg-comp:BG/200356710"
ebg_comp_BG_200356710 : a rov:RegisteredOrganization
class ebg_comp_BG_200356710_id_OCORP as "ebg-comp:BG/200356710/id/OCORP"
ebg_comp_BG_200356710 --> ebg_comp_BG_200356710_id_OCORP : adms:identifier
class ebg_comp_BG_200356710_id as "ebg-comp:BG/200356710/id"
ebg_comp_BG_200356710 --> ebg_comp_BG_200356710_id : rov:registration
ebg_comp_BG_200356710 : rov:legalName "Онтотекст АД"@bg
ebg_comp_BG_200356710 : schema:url <http://ontotext.com>
ebg_comp_BG_200356710 : skos:altLabel "Ontotext"@en
ebg_comp_GB_07444723_id_OCORP : a adms:Identifier
ebg_comp_GB_07444723_id_OCORP -up-> ebg_comp_GB_07444723 : dct:creator
ebg_comp_GB_07444723_id_OCORP :  "self-registration of OCORP in OCORP"
ebg_comp_GB_07444723_id_OCORP : skos:notation "gb/07444723"
class ebg_reg_BG as "ebg-reg:BG"
ebg_reg_BG : a ebg:Register
ebg_reg_BG --> ebg_reg_BG_id_RAL : adms:identifier
ebg_reg_BG : dc:identifier "BG"
ebg_reg_BG : rov:legalName "Търговски регистър"@bg
ebg_reg_BG : schema:url <http://www.brra.bg/Default.ra>
ebg_reg_BG : skos:altLabel "BG Commercial Register"@en
ebg_reg_BG : skos:prefLabel "BG Commercial Register"@en
ebg_reg_GB : a ebg:Register
ebg_reg_GB --> ebg_reg_GB_id_RAL_RA000587 : adms:identifier
ebg_reg_GB --> ebg_reg_GB_id_RAL_RA000586 : adms:identifier
ebg_reg_GB : dc:identifier "GB"
ebg_reg_GB : schema:url <http://www.companieshouse.gov.uk>
ebg_reg_GB : skos:prefLabel "GB Companies House"@en
ebg_comp_BG_200356710_id_OCORP : a adms:Identifier
ebg_comp_BG_200356710_id_OCORP -up-> ebg_comp_GB_07444723 : dct:creator
ebg_comp_BG_200356710_id_OCORP :  "Registration of ONTO in OCORP\n[when it ingests BG TR]"
ebg_comp_BG_200356710_id_OCORP : skos:notation "bg/200356710"
ebg_comp_BG_200356710_id : a adms:Identifier
ebg_comp_BG_200356710_id --> ebg_reg_BG : dct:creator
ebg_comp_BG_200356710_id :  "official registration of ONTO in BGTR"
ebg_comp_BG_200356710_id : skos:notation "200356710"
@enduml
